<?xml version="1.0" encoding="UTF-8"?>
<svg version="1.1" xmlns="http://www.w3.org/2000/svg" width="58" height="60">
<path d="M0 0 C4.13922888 1.64582286 6.99540069 4.63722895 10.11328125 7.70703125 C10.97399483 8.55064461 10.97399483 8.55064461 11.85209656 9.41130066 C13.05921921 10.59957697 14.26349444 11.79075194 15.46508789 12.98461914 C17.30984687 14.80987492 19.17481734 16.61272014 21.04101562 18.41601562 C22.21224879 19.57419627 23.38221563 20.7336592 24.55078125 21.89453125 C25.11211258 22.43116898 25.67344391 22.9678067 26.25178528 23.52070618 C28.47893176 25.7741825 29.93542732 27.25741413 30.21582031 30.48193359 C28.46822397 34.101353 25.85098393 36.64031841 22.99609375 39.39453125 C22.39821548 39.98674973 21.80033722 40.5789682 21.18434143 41.18913269 C19.27792983 43.07320469 17.35806809 44.94287154 15.4375 46.8125 C14.14036347 48.08956854 12.84412838 49.36755339 11.54882812 50.64648438 C8.37623663 53.77504052 5.19151172 56.89075189 2 60 C-2.13922888 58.35417714 -4.99540069 55.36277105 -8.11328125 52.29296875 C-8.6870903 51.73055984 -9.26089935 51.16815094 -9.85209656 50.58869934 C-11.05921921 49.40042303 -12.26349444 48.20924806 -13.46508789 47.01538086 C-15.30984687 45.19012508 -17.17481734 43.38727986 -19.04101562 41.58398438 C-20.21224879 40.42580373 -21.38221563 39.2663408 -22.55078125 38.10546875 C-23.11211258 37.56883102 -23.67344391 37.0321933 -24.25178528 36.47929382 C-26.47893176 34.2258175 -27.93542732 32.74258587 -28.21582031 29.51806641 C-26.46822397 25.898647 -23.85098393 23.35968159 -20.99609375 20.60546875 C-20.39821548 20.01325027 -19.80033722 19.4210318 -19.18434143 18.81086731 C-17.27792983 16.92679531 -15.35806809 15.05712846 -13.4375 13.1875 C-12.14036347 11.91043146 -10.84412838 10.63244661 -9.54882812 9.35351562 C-6.37623663 6.22495948 -3.19151172 3.10924811 0 0 Z " fill="#79BEE8" transform="translate(28,0)"/>
<path d="M0 0 C4.13922888 1.64582286 6.99540069 4.63722895 10.11328125 7.70703125 C10.97399483 8.55064461 10.97399483 8.55064461 11.85209656 9.41130066 C13.05921921 10.59957697 14.26349444 11.79075194 15.46508789 12.98461914 C17.30984687 14.80987492 19.17481734 16.61272014 21.04101562 18.41601562 C22.21224879 19.57419627 23.38221563 20.7336592 24.55078125 21.89453125 C25.11211258 22.43116898 25.67344391 22.9678067 26.25178528 23.52070618 C28.47893176 25.7741825 29.93542732 27.25741413 30.21582031 30.48193359 C28.46822397 34.101353 25.85098393 36.64031841 22.99609375 39.39453125 C22.39821548 39.98674973 21.80033722 40.5789682 21.18434143 41.18913269 C19.27792983 43.07320469 17.35806809 44.94287154 15.4375 46.8125 C14.14036347 48.08956854 12.84412838 49.36755339 11.54882812 50.64648438 C8.37623663 53.77504052 5.19151172 56.89075189 2 60 C-2.13922888 58.35417714 -4.99540069 55.36277105 -8.11328125 52.29296875 C-8.6870903 51.73055984 -9.26089935 51.16815094 -9.85209656 50.58869934 C-11.05921921 49.40042303 -12.26349444 48.20924806 -13.46508789 47.01538086 C-15.30984687 45.19012508 -17.17481734 43.38727986 -19.04101562 41.58398438 C-20.21224879 40.42580373 -21.38221563 39.2663408 -22.55078125 38.10546875 C-23.11211258 37.56883102 -23.67344391 37.0321933 -24.25178528 36.47929382 C-26.47893176 34.2258175 -27.93542732 32.74258587 -28.21582031 29.51806641 C-26.46822397 25.898647 -23.85098393 23.35968159 -20.99609375 20.60546875 C-20.39821548 20.01325027 -19.80033722 19.4210318 -19.18434143 18.81086731 C-17.27792983 16.92679531 -15.35806809 15.05712846 -13.4375 13.1875 C-12.14036347 11.91043146 -10.84412838 10.63244661 -9.54882812 9.35351562 C-6.37623663 6.22495948 -3.19151172 3.10924811 0 0 Z M-13.8125 19.125 C-17.89163231 24.48614533 -17.61359076 29.40605991 -17 36 C-14.52504043 41.2354914 -10.21541538 45.39229231 -5 48 C1.85366051 48.73808652 7.71392766 48.77705426 13.375 44.53125 C18.16020799 40.0221117 19.24609721 36.34854542 19.5 29.9375 C19.27681408 23.97099653 17.88231553 20.69114154 13.46875 16.5703125 C8.16768907 11.97086258 4.85859178 11.64869794 -2.01953125 11.72265625 C-7.51206574 12.2337571 -10.36687957 15.15377645 -13.8125 19.125 Z " fill="#3F98C7" transform="translate(28,0)"/>
<path d="M0 0 C4.90547807 2.27754339 7.4357862 5.26606683 10 10 C10 11.32 10 12.64 10 14 C5.33333333 13.33333333 0.66666667 12.66666667 -4 12 C-4 14.64 -4 17.28 -4 20 C-4.33 19.34 -4.66 18.68 -5 18 C-7.52733235 17.34444881 -7.52733235 17.34444881 -10 17 C-9.67 16.01 -9.34 15.02 -9 14 C-8.01 14 -7.02 14 -6 14 C-5.67 13.34 -5.34 12.68 -5 12 C-6.98 12.66 -8.96 13.32 -11 14 C-11 15.98 -11 17.96 -11 20 C-11.66 20 -12.32 20 -13 20 C-13.33 17.69 -13.66 15.38 -14 13 C-16.97 12.505 -16.97 12.505 -20 12 C-20 12.66 -20 13.32 -20 14 C-18.68 14.33 -17.36 14.66 -16 15 C-16.639375 15.2475 -17.27875 15.495 -17.9375 15.75 C-20.18741541 16.81562433 -20.18741541 16.81562433 -20.75 19.125 C-20.8325 19.74375 -20.915 20.3625 -21 21 C-21.33 21 -21.66 21 -22 21 C-22.62054002 11.31268081 -22.62054002 11.31268081 -20.375 6.5625 C-14.20271589 -0.09706969 -8.8700561 -1.19404601 0 0 Z " fill="#4EA2D1" transform="translate(35,14)"/>
<path d="M0 0 C4.19625909 1.63778045 6.98676785 4.73323182 10.078125 7.8828125 C10.64956238 8.45707977 11.22099976 9.03134705 11.80975342 9.62301636 C13.62792945 11.4523581 15.43901492 13.28854193 17.25 15.125 C18.48391329 16.36894774 19.71828322 17.6124427 20.953125 18.85546875 C23.97406743 21.89842367 26.98867092 24.94753254 30 28 C29.505 29.485 29.505 29.485 29 31 C28.52949219 30.45730469 28.05898438 29.91460938 27.57421875 29.35546875 C26.95160156 28.64003906 26.32898437 27.92460937 25.6875 27.1875 C24.76517578 26.12595703 24.76517578 26.12595703 23.82421875 25.04296875 C20.69863136 21.40008689 20.69863136 21.40008689 16.625 19.0625 C13.58311655 17.83126146 11.50399423 16.09794111 9 14 C4.82638598 11.91319299 -0.45541125 12.54732799 -5 13 C-8.40277812 14.79433653 -8.40277812 14.79433653 -11 17 C-13.875 17.75 -13.875 17.75 -16 18 C-14.6415798 14.95667235 -13.11536976 12.87690849 -10.7421875 10.546875 C-10.11699219 9.928125 -9.49179687 9.309375 -8.84765625 8.671875 C-8.19667969 8.03765625 -7.54570312 7.4034375 -6.875 6.75 C-6.21628906 6.1003125 -5.55757812 5.450625 -4.87890625 4.78125 C-3.25703357 3.18288273 -1.6306719 1.58938103 0 0 Z " fill="#72BAE3" transform="translate(28,0)"/>
<path d="M0 0 C-1.875 4.75 -1.875 4.75 -3 7 C-3.85416806 15.13655743 -3.85416806 15.13655743 -1.125 22.5625 C-0.073125 23.7690625 -0.073125 23.7690625 1 25 C2.55080743 27.32621115 3.79077344 29.50093178 5 32 C5.33 32.66 5.66 33.32 6 34 C0.77314486 31.69918689 -2.7992784 27.64778546 -6.8125 23.6875 C-7.61365234 22.92759766 -8.41480469 22.16769531 -9.24023438 21.38476562 C-9.99240234 20.64291016 -10.74457031 19.90105469 -11.51953125 19.13671875 C-12.21151611 18.46342529 -12.90350098 17.79013184 -13.61645508 17.09643555 C-15 15 -15 15 -14.8515625 12.40869141 C-13.66120783 9.0417077 -11.71570793 7.18609496 -9.1875 4.6875 C-7.87845703 3.36298828 -7.87845703 3.36298828 -6.54296875 2.01171875 C-4 0 -4 0 0 0 Z " fill="#54A6D4" transform="translate(15,17)"/>
<path d="M0 0 C5.2354914 2.47495957 9.39229231 6.78458462 12 12 C12.73808652 18.85366051 12.77705426 24.71392766 8.53125 30.375 C4.0221117 35.16020799 0.34854542 36.24609721 -6.0625 36.5 C-12.02900347 36.27681408 -15.30885846 34.88231553 -19.4296875 30.46875 C-24.02913742 25.16768907 -24.35130206 21.85859178 -24.27734375 14.98046875 C-23.7662429 9.48793426 -20.84622355 6.63312043 -16.875 3.1875 C-11.51385467 -0.89163231 -6.59394009 -0.61359076 0 0 Z M-20.375 8.5 C-22.77303575 13.66500009 -22.75381535 18.4002288 -22 24 C-19.73212562 28.8846525 -16.8846525 31.73212562 -12 34 C-6.4002288 34.75381535 -1.66500009 34.77303575 3.5 32.375 C8.3143755 27.80134327 10.25156236 24.6912538 10.5 18 C10.25156236 11.3087462 8.3143755 8.19865673 3.5 3.625 C-5.65589179 -0.62594976 -13.61982233 1.38928667 -20.375 8.5 Z " fill="#EEF6FB" transform="translate(35,12)"/>
<path d="M0 0 C4.03002504 0.53487746 5.90131325 2.52894478 8.6875 5.375 C9.47511719 6.16648437 10.26273438 6.95796875 11.07421875 7.7734375 C13 10 13 10 14 13 C12.04761147 15.00612399 10.08862178 17.00492433 8.125 19 C7.56941406 19.57234375 7.01382813 20.1446875 6.44140625 20.734375 C4.99865596 22.19450782 3.5025626 23.60149298 2 25 C1.34 25 0.68 25 0 25 C-0.33 24.01 -0.66 23.02 -1 22 C-0.53207031 21.236875 -0.06414063 20.47375 0.41796875 19.6875 C2.28340655 16.51855875 2.37294248 14.64514636 2.3125 11 C2.30863281 9.989375 2.30476563 8.97875 2.30078125 7.9375 C1.99464942 4.94774501 1.2533749 2.71647787 0 0 Z " fill="#56A8D5" transform="translate(44,19)"/>
<path d="M0 0 C1.81242052 -0.02687279 3.62495233 -0.04633715 5.4375 -0.0625 C6.44683594 -0.07410156 7.45617188 -0.08570312 8.49609375 -0.09765625 C11 0 11 0 12 1 C12.04092937 3.33297433 12.04241723 5.66705225 12 8 C11.34 8 10.68 8 10 8 C10 6.02 10 4.04 10 2 C9.01 2 8.02 2 7 2 C7 3.98 7 5.96 7 8 C6.34 8 5.68 8 5 8 C5 6.02 5 4.04 5 2 C4.34 2 3.68 2 3 2 C3 3.98 3 5.96 3 8 C2.01 8 1.02 8 0 8 C0 5.36 0 2.72 0 0 Z " fill="#FCFDFE" transform="translate(31,26)"/>
<path d="M0 0 C1.99954746 -0.04254356 4.00041636 -0.04080783 6 0 C7 1 7 1 7.0625 4.5625 C7.041875 5.696875 7.02125 6.83125 7 8 C4.69 8 2.38 8 0 8 C0 5.33333333 0 2.66666667 0 0 Z " fill="#F1F8FC" transform="translate(15,26)"/>
<path d="M0 0 C-1 3 -1 3 -3.0625 4.1875 C-7.33048779 6.82093927 -10.54693112 10.39269975 -14 14 C-14.33 13.01 -14.66 12.02 -15 11 C-13.26187359 9.15398988 -11.51111579 7.32385273 -9.75 5.5 C-9.01330078 4.71302734 -9.01330078 4.71302734 -8.26171875 3.91015625 C-4.453125 0 -4.453125 0 0 0 Z " fill="#61B0DB" transform="translate(15,17)"/>
<path d="M0 0 C0.78375 0.04125 1.5675 0.0825 2.375 0.125 C2.045 1.115 1.715 2.105 1.375 3.125 C0.385 3.125 -0.605 3.125 -1.625 3.125 C-1.625 3.785 -1.625 4.445 -1.625 5.125 C-0.305 5.455 1.015 5.785 2.375 6.125 C2.375 6.785 2.375 7.445 2.375 8.125 C0.37545254 8.16754356 -1.62541636 8.16580783 -3.625 8.125 C-4.625 7.125 -4.625 7.125 -4.8125 4.6875 C-4.54653904 1.05270021 -3.63803315 0.17323967 0 0 Z " fill="#F0F7FB" transform="translate(27.625,25.875)"/>
<path d="M0 0 C1.32 0.33 2.64 0.66 4 1 C3.67 3.31 3.34 5.62 3 8 C2.01 8 1.02 8 0 8 C0 5.36 0 2.72 0 0 Z " fill="#EEF6FB" transform="translate(31,26)"/>
<path d="M0 0 C1.98 0 3.96 0 6 0 C6.33 0.99 6.66 1.98 7 3 C6.34 3 5.68 3 5 3 C5 3.99 5 4.98 5 6 C4.01 5.67 3.02 5.34 2 5 C2.66 4.01 3.32 3.02 4 2 C2.68 2 1.36 2 0 2 C0 1.34 0 0.68 0 0 Z " fill="#DAECF7" transform="translate(15,26)"/>
<path d="M0 0 C0.66 0.33 1.32 0.66 2 1 C-0.31 3.31 -2.62 5.62 -5 8 C-5.33 7.01 -5.66 6.02 -6 5 C-4.02 3.35 -2.04 1.7 0 0 Z " fill="#469CCA" transform="translate(21,15)"/>
<path d="M0 0 C2.97 0.495 2.97 0.495 6 1 C5.360625 1.4125 4.72125 1.825 4.0625 2.25 C1.79009069 4.17810487 1.39803561 5.11424181 1 8 C0.67 8 0.34 8 0 8 C0 5.36 0 2.72 0 0 Z " fill="#5EAEDD" transform="translate(13,27)"/>
<path d="" fill="#000000" transform="translate(0,0)"/>
<path d="" fill="#000000" transform="translate(0,0)"/>
<path d="" fill="#000000" transform="translate(0,0)"/>
<path d="" fill="#000000" transform="translate(0,0)"/>
<path d="" fill="#000000" transform="translate(0,0)"/>
<path d="" fill="#000000" transform="translate(0,0)"/>
<path d="" fill="#000000" transform="translate(0,0)"/>
<path d="" fill="#000000" transform="translate(0,0)"/>
<path d="" fill="#000000" transform="translate(0,0)"/>
<path d="" fill="#000000" transform="translate(0,0)"/>
<path d="" fill="#000000" transform="translate(0,0)"/>
<path d="" fill="#000000" transform="translate(0,0)"/>
<path d="" fill="#000000" transform="translate(0,0)"/>
<path d="" fill="#000000" transform="translate(0,0)"/>
<path d="" fill="#000000" transform="translate(0,0)"/>
<path d="" fill="#000000" transform="translate(0,0)"/>
<path d="" fill="#000000" transform="translate(0,0)"/>
<path d="" fill="#000000" transform="translate(0,0)"/>
<path d="" fill="#000000" transform="translate(0,0)"/>
<path d="" fill="#000000" transform="translate(0,0)"/>
<path d="" fill="#000000" transform="translate(0,0)"/>
<path d="" fill="#000000" transform="translate(0,0)"/>
<path d="" fill="#000000" transform="translate(0,0)"/>
<path d="" fill="#000000" transform="translate(0,0)"/>
<path d="" fill="#000000" transform="translate(0,0)"/>
<path d="" fill="#000000" transform="translate(0,0)"/>
<path d="" fill="#000000" transform="translate(0,0)"/>
<path d="" fill="#000000" transform="translate(0,0)"/>
<path d="" fill="#000000" transform="translate(0,0)"/>
<path d="" fill="#000000" transform="translate(0,0)"/>
<path d="" fill="#000000" transform="translate(0,0)"/>
<path d="" fill="#000000" transform="translate(0,0)"/>
<path d="" fill="#000000" transform="translate(0,0)"/>
<path d="" fill="#000000" transform="translate(0,0)"/>
<path d="" fill="#000000" transform="translate(0,0)"/>
<path d="" fill="#000000" transform="translate(0,0)"/>
<path d="" fill="#000000" transform="translate(0,0)"/>
<path d="" fill="#000000" transform="translate(0,0)"/>
<path d="" fill="#000000" transform="translate(0,0)"/>
<path d="" fill="#000000" transform="translate(0,0)"/>
<path d="" fill="#000000" transform="translate(0,0)"/>
<path d="" fill="#000000" transform="translate(0,0)"/>
<path d="" fill="#000000" transform="translate(0,0)"/>
<path d="" fill="#000000" transform="translate(0,0)"/>
<path d="" fill="#000000" transform="translate(0,0)"/>
<path d="" fill="#000000" transform="translate(0,0)"/>
<path d="" fill="#000000" transform="translate(0,0)"/>
<path d="" fill="#000000" transform="translate(0,0)"/>
<path d="" fill="#000000" transform="translate(0,0)"/>
<path d="" fill="#000000" transform="translate(0,0)"/>
<path d="" fill="#000000" transform="translate(0,0)"/>
<path d="" fill="#000000" transform="translate(0,0)"/>
<path d="" fill="#000000" transform="translate(0,0)"/>
<path d="" fill="#000000" transform="translate(0,0)"/>
<path d="" fill="#000000" transform="translate(0,0)"/>
<path d="" fill="#000000" transform="translate(0,0)"/>
<path d="" fill="#000000" transform="translate(0,0)"/>
<path d="" fill="#000000" transform="translate(0,0)"/>
<path d="" fill="#000000" transform="translate(0,0)"/>
<path d="" fill="#000000" transform="translate(0,0)"/>
<path d="" fill="#000000" transform="translate(0,0)"/>
<path d="" fill="#000000" transform="translate(0,0)"/>
<path d="" fill="#000000" transform="translate(0,0)"/>
<path d="" fill="#000000" transform="translate(0,0)"/>
<path d="" fill="#000000" transform="translate(0,0)"/>
<path d="" fill="#000000" transform="translate(0,0)"/>
<path d="" fill="#000000" transform="translate(0,0)"/>
<path d="" fill="#000000" transform="translate(0,0)"/>
<path d="" fill="#000000" transform="translate(0,0)"/>
<path d="" fill="#000000" transform="translate(0,0)"/>
<path d="" fill="#000000" transform="translate(0,0)"/>
<path d="" fill="#000000" transform="translate(0,0)"/>
<path d="" fill="#000000" transform="translate(0,0)"/>
<path d="" fill="#000000" transform="translate(0,0)"/>
<path d="" fill="#000000" transform="translate(0,0)"/>
<path d="" fill="#000000" transform="translate(0,0)"/>
<path d="" fill="#000000" transform="translate(0,0)"/>
<path d="" fill="#000000" transform="translate(0,0)"/>
<path d="" fill="#000000" transform="translate(0,0)"/>
<path d="" fill="#000000" transform="translate(0,0)"/>
<path d="" fill="#000000" transform="translate(0,0)"/>
<path d="" fill="#000000" transform="translate(0,0)"/>
<path d="" fill="#000000" transform="translate(0,0)"/>
<path d="" fill="#000000" transform="translate(0,0)"/>
<path d="" fill="#000000" transform="translate(0,0)"/>
<path d="" fill="#000000" transform="translate(0,0)"/>
<path d="" fill="#000000" transform="translate(0,0)"/>
<path d="" fill="#000000" transform="translate(0,0)"/>
<path d="" fill="#000000" transform="translate(0,0)"/>
<path d="" fill="#000000" transform="translate(0,0)"/>
<path d="" fill="#000000" transform="translate(0,0)"/>
<path d="" fill="#000000" transform="translate(0,0)"/>
<path d="" fill="#000000" transform="translate(0,0)"/>
<path d="" fill="#000000" transform="translate(0,0)"/>
<path d="" fill="#000000" transform="translate(0,0)"/>
<path d="" fill="#000000" transform="translate(0,0)"/>
<path d="" fill="#000000" transform="translate(0,0)"/>
<path d="" fill="#000000" transform="translate(0,0)"/>
<path d="" fill="#000000" transform="translate(0,0)"/>
<path d="" fill="#000000" transform="translate(0,0)"/>
<path d="" fill="#000000" transform="translate(0,0)"/>
<path d="" fill="#000000" transform="translate(0,0)"/>
<path d="" fill="#000000" transform="translate(0,0)"/>
<path d="" fill="#000000" transform="translate(0,0)"/>
<path d="" fill="#000000" transform="translate(0,0)"/>
<path d="" fill="#000000" transform="translate(0,0)"/>
<path d="" fill="#000000" transform="translate(0,0)"/>
<path d="" fill="#000000" transform="translate(0,0)"/>
</svg>
