<svg width="1285" height="882" viewBox="0 0 1285 882" fill="none" xmlns="http://www.w3.org/2000/svg">
<rect x="0.636575" y="0.634106" width="329.116" height="317.192" transform="matrix(0.999998 -0.00206153 0.00182578 0.999998 598.607 131.072)" fill="#0D0D0D" stroke="#C1C1C1" stroke-width="1.27083"/>
<rect x="0.636575" y="0.634106" width="329.116" height="316.105" transform="matrix(0.999998 -0.00206153 0.00182578 0.999998 953.81 277.071)" fill="#0D0D0D" stroke="#C1C1C1" stroke-width="1.27083"/>
<rect x="0.636575" y="0.634106" width="330.139" height="317.192" transform="matrix(0.999998 -0.00206153 0.00182578 0.999998 51.1331 0.684419)" fill="#0D0D0D" stroke="#C1C1C1" stroke-width="1.27083"/>
<rect x="0.168009" y="0.167357" width="87.6313" height="83.3561" transform="matrix(0.999998 -0.00206153 0.00182578 0.999998 547.051 464.857)" fill="#0D0D0D" stroke="#C1C1C1" stroke-width="0.335406"/>
<rect x="0.168009" y="0.167357" width="86.6085" height="83.3561" transform="matrix(0.999998 -0.00206153 0.00182578 0.999998 649.338 464.646)" fill="#0D0D0D" stroke="#C1C1C1" stroke-width="0.335406"/>
<rect x="0.168009" y="0.167357" width="86.6085" height="84.443" transform="matrix(0.999998 -0.00206153 0.00182578 0.999998 1162.3 178.819)" fill="#0D0D0D" stroke="#C1C1C1" stroke-width="0.335406"/>
<rect x="0.168009" y="0.167357" width="86.6085" height="83.3561" transform="matrix(0.999998 -0.00206153 0.00182578 0.999998 502.461 132.356)" fill="#0D0D0D" stroke="#C1C1C1" stroke-width="0.335406"/>
<rect x="0.168009" y="0.167357" width="87.6313" height="83.3561" transform="matrix(0.999998 -0.00206153 0.00182578 0.999998 142.771 329.827)" fill="#0D0D0D" stroke="#C1C1C1" stroke-width="0.335406"/>
<rect x="0.168009" y="0.167357" width="87.6313" height="83.3561" transform="matrix(0.999998 -0.00206153 0.00182578 0.999998 142.967 437.43)" fill="#0D0D0D" stroke="#C1C1C1" stroke-width="0.335406"/>
<rect x="0.168009" y="0.167357" width="183.781" height="84.443" transform="matrix(0.999998 -0.00206153 0.00182578 0.999998 953.632 179.249)" fill="#0D0D0D" stroke="#C1C1C1" stroke-width="0.335406"/>
<rect x="0.168009" y="0.167357" width="288.114" height="84.443" transform="matrix(0.999998 -0.00206153 0.00182578 0.999998 649.516 562.467)" fill="#0D0D0D" stroke="#C1C1C1" stroke-width="0.335406"/>
<rect x="0.168009" y="0.167357" width="288.114" height="84.443" transform="matrix(0.999998 -0.00206153 0.00182578 0.999998 649.516 562.467)" fill="#0D0D0D" stroke="#C1C1C1" stroke-width="0.335406"/>
<rect x="0.168009" y="0.167357" width="287.091" height="83.3561" transform="matrix(0.999998 -0.00206153 0.00182578 0.999998 598.429 33.2496)" fill="#0D0D0D" stroke="#C1C1C1" stroke-width="0.335406"/>
<rect x="0.168009" y="0.167357" width="288.114" height="83.3561" transform="matrix(0.999998 -0.00206153 0.00182578 0.999998 952.559 711.835)" fill="#0D0D0D" stroke="#C1C1C1" stroke-width="0.335406"/>
<rect x="0.168009" y="0.167357" width="288.114" height="83.3561" transform="matrix(0.999998 -0.00206153 0.00182578 0.999998 -0.000305196 565.98)" fill="#0D0D0D" stroke="#C1C1C1" stroke-width="0.335406"/>
<rect x="0.168009" y="0.167357" width="288.114" height="219.219" transform="matrix(0.999998 -0.00206153 0.00182578 0.999998 649.697 661.375)" fill="#0D0D0D" stroke="#C1C1C1" stroke-width="0.335406"/>
<rect x="0.168009" y="0.167357" width="288.114" height="219.219" transform="matrix(0.999998 -0.00206153 0.00182578 0.999998 244.034 329.618)" fill="#0D0D0D" stroke="#C1C1C1" stroke-width="0.335406"/>
<rect x="0.168009" y="0.167357" width="183.781" height="83.3561" transform="matrix(0.999998 -0.00206153 0.00182578 0.999998 753.67 464.431)" fill="#0D0D0D" stroke="#C1C1C1" stroke-width="0.335406"/>
<rect x="0.168009" y="0.167357" width="184.804" height="83.3561" transform="matrix(0.999998 -0.00206153 0.00182578 0.999998 398.309 231.479)" fill="#0D0D0D" stroke="#C1C1C1" stroke-width="0.335406"/>
<rect x="0.168009" y="0.167357" width="183.781" height="84.443" transform="matrix(0.999998 -0.00206153 0.00182578 0.999998 952.375 610.754)" fill="#0D0D0D" stroke="#C1C1C1" stroke-width="0.335406"/>
<rect x="0.636575" y="0.634106" width="329.116" height="317.192" transform="matrix(0.999998 -0.00206153 0.00182578 0.999998 304.809 563.179)" fill="#0D0D0D" stroke="#C1C1C1" stroke-width="1.27083"/>
</svg>
